<mxfile host="www.draw.io" modified="2020-01-27T12:09:02.663Z" agent="Mozilla/5.0 (Windows NT 10.0; Win64; x64) AppleWebKit/537.36 (KHTML, like Gecko) Chrome/79.0.3945.130 Safari/537.36" etag="yG7ULdlusLjTwI7eYAXD" version="12.5.8" type="github">
  <diagram id="C5RBs43oDa-KdzZeNtuy" name="Page-1">
    <mxGraphModel dx="1385" dy="635" grid="1" gridSize="10" guides="1" tooltips="1" connect="1" arrows="1" fold="1" page="1" pageScale="1" pageWidth="827" pageHeight="1169" math="0" shadow="0">
      <root>
        <mxCell id="WIyWlLk6GJQsqaUBKTNV-0"/>
        <mxCell id="WIyWlLk6GJQsqaUBKTNV-1" parent="WIyWlLk6GJQsqaUBKTNV-0"/>
        <mxCell id="zkfFHV4jXpPFQw0GAbJ--51" value="T_Departements" style="swimlane;fontStyle=1;childLayout=stackLayout;horizontal=1;startSize=26;horizontalStack=0;resizeParent=1;resizeLast=0;collapsible=1;marginBottom=0;rounded=0;shadow=0;strokeWidth=1;" parent="WIyWlLk6GJQsqaUBKTNV-1" vertex="1">
          <mxGeometry x="603" y="40" width="160" height="78" as="geometry">
            <mxRectangle x="20" y="80" width="160" height="26" as="alternateBounds"/>
          </mxGeometry>
        </mxCell>
        <mxCell id="zkfFHV4jXpPFQw0GAbJ--52" value="id_departement" style="shape=partialRectangle;top=0;left=0;right=0;bottom=1;align=left;verticalAlign=top;fillColor=none;spacingLeft=40;spacingRight=4;overflow=hidden;rotatable=0;points=[[0,0.5],[1,0.5]];portConstraint=eastwest;dropTarget=0;rounded=0;shadow=0;strokeWidth=1;fontStyle=4" parent="zkfFHV4jXpPFQw0GAbJ--51" vertex="1">
          <mxGeometry y="26" width="160" height="26" as="geometry"/>
        </mxCell>
        <mxCell id="zkfFHV4jXpPFQw0GAbJ--53" value="PK" style="shape=partialRectangle;top=0;left=0;bottom=0;fillColor=none;align=left;verticalAlign=top;spacingLeft=4;spacingRight=4;overflow=hidden;rotatable=0;points=[];portConstraint=eastwest;part=1;" parent="zkfFHV4jXpPFQw0GAbJ--52" vertex="1" connectable="0">
          <mxGeometry width="36" height="26" as="geometry"/>
        </mxCell>
        <mxCell id="zkfFHV4jXpPFQw0GAbJ--54" value="Departement" style="shape=partialRectangle;top=0;left=0;right=0;bottom=0;align=left;verticalAlign=top;fillColor=none;spacingLeft=40;spacingRight=4;overflow=hidden;rotatable=0;points=[[0,0.5],[1,0.5]];portConstraint=eastwest;dropTarget=0;rounded=0;shadow=0;strokeWidth=1;" parent="zkfFHV4jXpPFQw0GAbJ--51" vertex="1">
          <mxGeometry y="52" width="160" height="26" as="geometry"/>
        </mxCell>
        <mxCell id="zkfFHV4jXpPFQw0GAbJ--55" value="" style="shape=partialRectangle;top=0;left=0;bottom=0;fillColor=none;align=left;verticalAlign=top;spacingLeft=4;spacingRight=4;overflow=hidden;rotatable=0;points=[];portConstraint=eastwest;part=1;" parent="zkfFHV4jXpPFQw0GAbJ--54" vertex="1" connectable="0">
          <mxGeometry width="36" height="26" as="geometry"/>
        </mxCell>
        <mxCell id="zkfFHV4jXpPFQw0GAbJ--56" value="T_Utilisateurs" style="swimlane;fontStyle=1;childLayout=stackLayout;horizontal=1;startSize=26;horizontalStack=0;resizeParent=1;resizeLast=0;collapsible=1;marginBottom=0;rounded=0;shadow=0;strokeWidth=1;" parent="WIyWlLk6GJQsqaUBKTNV-1" vertex="1">
          <mxGeometry x="326" y="150" width="160" height="190" as="geometry">
            <mxRectangle x="260" y="80" width="160" height="26" as="alternateBounds"/>
          </mxGeometry>
        </mxCell>
        <mxCell id="zkfFHV4jXpPFQw0GAbJ--57" value="id_utilisateur" style="shape=partialRectangle;top=0;left=0;right=0;bottom=1;align=left;verticalAlign=top;fillColor=none;spacingLeft=40;spacingRight=4;overflow=hidden;rotatable=0;points=[[0,0.5],[1,0.5]];portConstraint=eastwest;dropTarget=0;rounded=0;shadow=0;strokeWidth=1;fontStyle=4" parent="zkfFHV4jXpPFQw0GAbJ--56" vertex="1">
          <mxGeometry y="26" width="160" height="26" as="geometry"/>
        </mxCell>
        <mxCell id="zkfFHV4jXpPFQw0GAbJ--58" value="PK" style="shape=partialRectangle;top=0;left=0;bottom=0;fillColor=none;align=left;verticalAlign=top;spacingLeft=4;spacingRight=4;overflow=hidden;rotatable=0;points=[];portConstraint=eastwest;part=1;" parent="zkfFHV4jXpPFQw0GAbJ--57" vertex="1" connectable="0">
          <mxGeometry width="36" height="26" as="geometry"/>
        </mxCell>
        <mxCell id="zkfFHV4jXpPFQw0GAbJ--61" value="fk_Departement&#xa;fk_Droit&#xa;Login&#xa;Password&#xa;Nom_utilisateur&#xa;Prénom&#xa;Numéro_Fix&#xa;Numéro_Mob&#xa;E-mail" style="shape=partialRectangle;top=0;left=0;right=0;bottom=0;align=left;verticalAlign=top;fillColor=none;spacingLeft=40;spacingRight=4;overflow=hidden;rotatable=0;points=[[0,0.5],[1,0.5]];portConstraint=eastwest;dropTarget=0;rounded=0;shadow=0;strokeWidth=1;" parent="zkfFHV4jXpPFQw0GAbJ--56" vertex="1">
          <mxGeometry y="52" width="160" height="138" as="geometry"/>
        </mxCell>
        <mxCell id="zkfFHV4jXpPFQw0GAbJ--62" value="FK&#xa;FK" style="shape=partialRectangle;top=0;left=0;bottom=0;fillColor=none;align=left;verticalAlign=top;spacingLeft=4;spacingRight=4;overflow=hidden;rotatable=0;points=[];portConstraint=eastwest;part=1;" parent="zkfFHV4jXpPFQw0GAbJ--61" vertex="1" connectable="0">
          <mxGeometry width="36" height="137.99999999999994" as="geometry"/>
        </mxCell>
        <mxCell id="zkfFHV4jXpPFQw0GAbJ--63" value="" style="edgeStyle=orthogonalEdgeStyle;endArrow=ERmandOne;startArrow=ERmany;shadow=0;strokeWidth=1;endSize=8;startSize=8;startFill=0;endFill=0;" parent="WIyWlLk6GJQsqaUBKTNV-1" source="zkfFHV4jXpPFQw0GAbJ--52" target="zkfFHV4jXpPFQw0GAbJ--57" edge="1">
          <mxGeometry width="100" height="100" relative="1" as="geometry">
            <mxPoint x="303" y="390" as="sourcePoint"/>
            <mxPoint x="403" y="290" as="targetPoint"/>
          </mxGeometry>
        </mxCell>
        <mxCell id="zkfFHV4jXpPFQw0GAbJ--64" value="T_Tickets" style="swimlane;fontStyle=1;childLayout=stackLayout;horizontal=1;startSize=26;horizontalStack=0;resizeParent=1;resizeLast=0;collapsible=1;marginBottom=0;rounded=0;shadow=0;strokeWidth=1;" parent="WIyWlLk6GJQsqaUBKTNV-1" vertex="1">
          <mxGeometry x="326" y="450" width="197" height="260" as="geometry">
            <mxRectangle x="260" y="270" width="160" height="26" as="alternateBounds"/>
          </mxGeometry>
        </mxCell>
        <mxCell id="zkfFHV4jXpPFQw0GAbJ--65" value="id_ticket" style="shape=partialRectangle;top=0;left=0;right=0;bottom=1;align=left;verticalAlign=top;fillColor=none;spacingLeft=40;spacingRight=4;overflow=hidden;rotatable=0;points=[[0,0.5],[1,0.5]];portConstraint=eastwest;dropTarget=0;rounded=0;shadow=0;strokeWidth=1;fontStyle=4" parent="zkfFHV4jXpPFQw0GAbJ--64" vertex="1">
          <mxGeometry y="26" width="197" height="26" as="geometry"/>
        </mxCell>
        <mxCell id="zkfFHV4jXpPFQw0GAbJ--66" value="PK" style="shape=partialRectangle;top=0;left=0;bottom=0;fillColor=none;align=left;verticalAlign=top;spacingLeft=4;spacingRight=4;overflow=hidden;rotatable=0;points=[];portConstraint=eastwest;part=1;" parent="zkfFHV4jXpPFQw0GAbJ--65" vertex="1" connectable="0">
          <mxGeometry width="36" height="26" as="geometry"/>
        </mxCell>
        <mxCell id="zkfFHV4jXpPFQw0GAbJ--69" value="fk_id_utilisateur_demandeur&#xa;fk_id_utilisateur_beneficiaire&#xa;fk_id_utilisateur_depanneur&#xa;fk_id_status&#xa;fk_id_impact&#xa;fk_id_priorite&#xa;fk_id_categorie&#xa;Date_ouverture&#xa;Date_fermeture&#xa;IP_creation&#xa;Nom_machine_creation&#xa;Nom_machine_probleme&#xa;Description_ticket&#xa;Résolution" style="shape=partialRectangle;top=0;left=0;right=0;bottom=0;align=left;verticalAlign=top;fillColor=none;spacingLeft=40;spacingRight=4;overflow=hidden;rotatable=0;points=[[0,0.5],[1,0.5]];portConstraint=eastwest;dropTarget=0;rounded=0;shadow=0;strokeWidth=1;" parent="zkfFHV4jXpPFQw0GAbJ--64" vertex="1">
          <mxGeometry y="52" width="197" height="208" as="geometry"/>
        </mxCell>
        <mxCell id="zkfFHV4jXpPFQw0GAbJ--70" value="FK&#xa;FK&#xa;FK&#xa;FK&#xa;FK&#xa;FK&#xa;FK" style="shape=partialRectangle;top=0;left=0;bottom=0;fillColor=none;align=left;verticalAlign=top;spacingLeft=4;spacingRight=4;overflow=hidden;rotatable=0;points=[];portConstraint=eastwest;part=1;" parent="zkfFHV4jXpPFQw0GAbJ--69" vertex="1" connectable="0">
          <mxGeometry width="36" height="208" as="geometry"/>
        </mxCell>
        <mxCell id="zkfFHV4jXpPFQw0GAbJ--71" value="" style="edgeStyle=orthogonalEdgeStyle;endArrow=ERzeroToMany;startArrow=ERmandOne;shadow=0;strokeWidth=1;endSize=8;startSize=8;" parent="WIyWlLk6GJQsqaUBKTNV-1" source="zkfFHV4jXpPFQw0GAbJ--56" target="zkfFHV4jXpPFQw0GAbJ--64" edge="1">
          <mxGeometry width="100" height="100" relative="1" as="geometry">
            <mxPoint x="403" y="182" as="sourcePoint"/>
            <mxPoint x="323" y="169" as="targetPoint"/>
            <Array as="points"/>
          </mxGeometry>
        </mxCell>
        <mxCell id="O1W7RyEscfZ62sLBNmEL-0" value="T_Droits" style="swimlane;fontStyle=1;childLayout=stackLayout;horizontal=1;startSize=26;horizontalStack=0;resizeParent=1;resizeLast=0;collapsible=1;marginBottom=0;rounded=0;shadow=0;strokeWidth=1;" parent="WIyWlLk6GJQsqaUBKTNV-1" vertex="1">
          <mxGeometry x="39.8" y="40" width="160" height="90" as="geometry">
            <mxRectangle x="20" y="80" width="160" height="26" as="alternateBounds"/>
          </mxGeometry>
        </mxCell>
        <mxCell id="O1W7RyEscfZ62sLBNmEL-1" value="id_droit" style="shape=partialRectangle;top=0;left=0;right=0;bottom=1;align=left;verticalAlign=top;fillColor=none;spacingLeft=40;spacingRight=4;overflow=hidden;rotatable=0;points=[[0,0.5],[1,0.5]];portConstraint=eastwest;dropTarget=0;rounded=0;shadow=0;strokeWidth=1;fontStyle=4" parent="O1W7RyEscfZ62sLBNmEL-0" vertex="1">
          <mxGeometry y="26" width="160" height="26" as="geometry"/>
        </mxCell>
        <mxCell id="O1W7RyEscfZ62sLBNmEL-2" value="PK" style="shape=partialRectangle;top=0;left=0;bottom=0;fillColor=none;align=left;verticalAlign=top;spacingLeft=4;spacingRight=4;overflow=hidden;rotatable=0;points=[];portConstraint=eastwest;part=1;" parent="O1W7RyEscfZ62sLBNmEL-1" vertex="1" connectable="0">
          <mxGeometry width="36" height="26" as="geometry"/>
        </mxCell>
        <mxCell id="O1W7RyEscfZ62sLBNmEL-3" value="Niveau_droit&#xa;Description_droit" style="shape=partialRectangle;top=0;left=0;right=0;bottom=0;align=left;verticalAlign=top;fillColor=none;spacingLeft=40;spacingRight=4;overflow=hidden;rotatable=0;points=[[0,0.5],[1,0.5]];portConstraint=eastwest;dropTarget=0;rounded=0;shadow=0;strokeWidth=1;" parent="O1W7RyEscfZ62sLBNmEL-0" vertex="1">
          <mxGeometry y="52" width="160" height="38" as="geometry"/>
        </mxCell>
        <mxCell id="O1W7RyEscfZ62sLBNmEL-4" value="" style="shape=partialRectangle;top=0;left=0;bottom=0;fillColor=none;align=left;verticalAlign=top;spacingLeft=4;spacingRight=4;overflow=hidden;rotatable=0;points=[];portConstraint=eastwest;part=1;" parent="O1W7RyEscfZ62sLBNmEL-3" vertex="1" connectable="0">
          <mxGeometry width="36" height="38" as="geometry"/>
        </mxCell>
        <mxCell id="O1W7RyEscfZ62sLBNmEL-8" value="" style="edgeStyle=orthogonalEdgeStyle;endArrow=ERzeroToMany;startArrow=ERmandOne;shadow=0;strokeWidth=1;endSize=8;startSize=8;exitX=0;exitY=0.5;exitDx=0;exitDy=0;entryX=1;entryY=0.5;entryDx=0;entryDy=0;" parent="WIyWlLk6GJQsqaUBKTNV-1" source="zkfFHV4jXpPFQw0GAbJ--57" target="O1W7RyEscfZ62sLBNmEL-1" edge="1">
          <mxGeometry width="100" height="100" relative="1" as="geometry">
            <mxPoint x="373" y="320" as="sourcePoint"/>
            <mxPoint x="373" y="460" as="targetPoint"/>
            <Array as="points"/>
          </mxGeometry>
        </mxCell>
        <mxCell id="O1W7RyEscfZ62sLBNmEL-9" value="T_Categories" style="swimlane;fontStyle=1;childLayout=stackLayout;horizontal=1;startSize=26;horizontalStack=0;resizeParent=1;resizeLast=0;collapsible=1;marginBottom=0;rounded=0;shadow=0;strokeWidth=1;" parent="WIyWlLk6GJQsqaUBKTNV-1" vertex="1">
          <mxGeometry x="13" y="760" width="160" height="110" as="geometry">
            <mxRectangle x="20" y="80" width="160" height="26" as="alternateBounds"/>
          </mxGeometry>
        </mxCell>
        <mxCell id="O1W7RyEscfZ62sLBNmEL-10" value="id_categorie" style="shape=partialRectangle;top=0;left=0;right=0;bottom=1;align=left;verticalAlign=top;fillColor=none;spacingLeft=40;spacingRight=4;overflow=hidden;rotatable=0;points=[[0,0.5],[1,0.5]];portConstraint=eastwest;dropTarget=0;rounded=0;shadow=0;strokeWidth=1;fontStyle=4" parent="O1W7RyEscfZ62sLBNmEL-9" vertex="1">
          <mxGeometry y="26" width="160" height="26" as="geometry"/>
        </mxCell>
        <mxCell id="O1W7RyEscfZ62sLBNmEL-11" value="PK" style="shape=partialRectangle;top=0;left=0;bottom=0;fillColor=none;align=left;verticalAlign=top;spacingLeft=4;spacingRight=4;overflow=hidden;rotatable=0;points=[];portConstraint=eastwest;part=1;" parent="O1W7RyEscfZ62sLBNmEL-10" vertex="1" connectable="0">
          <mxGeometry width="36" height="26" as="geometry"/>
        </mxCell>
        <mxCell id="O1W7RyEscfZ62sLBNmEL-12" value="Categorie&#xa;fk_categorie&#xa;Description_categorie" style="shape=partialRectangle;top=0;left=0;right=0;bottom=0;align=left;verticalAlign=top;fillColor=none;spacingLeft=40;spacingRight=4;overflow=hidden;rotatable=0;points=[[0,0.5],[1,0.5]];portConstraint=eastwest;dropTarget=0;rounded=0;shadow=0;strokeWidth=1;" parent="O1W7RyEscfZ62sLBNmEL-9" vertex="1">
          <mxGeometry y="52" width="160" height="58" as="geometry"/>
        </mxCell>
        <mxCell id="O1W7RyEscfZ62sLBNmEL-13" value="" style="shape=partialRectangle;top=0;left=0;bottom=0;fillColor=none;align=left;verticalAlign=top;spacingLeft=4;spacingRight=4;overflow=hidden;rotatable=0;points=[];portConstraint=eastwest;part=1;" parent="O1W7RyEscfZ62sLBNmEL-12" vertex="1" connectable="0">
          <mxGeometry width="36" height="58" as="geometry"/>
        </mxCell>
        <mxCell id="SVWqZJ9bru4QcORBYJ26-14" value="" style="edgeStyle=orthogonalEdgeStyle;endArrow=ERzeroToMany;startArrow=ERmandOne;shadow=0;strokeWidth=1;endSize=8;startSize=8;entryX=1;entryY=0.5;entryDx=0;entryDy=0;exitX=1;exitY=0.5;exitDx=0;exitDy=0;" parent="O1W7RyEscfZ62sLBNmEL-9" source="O1W7RyEscfZ62sLBNmEL-10" target="O1W7RyEscfZ62sLBNmEL-12" edge="1">
          <mxGeometry width="100" height="100" relative="1" as="geometry">
            <mxPoint x="323" y="-140" as="sourcePoint"/>
            <mxPoint x="90" y="10" as="targetPoint"/>
            <Array as="points">
              <mxPoint x="190" y="39"/>
              <mxPoint x="190" y="81"/>
            </Array>
          </mxGeometry>
        </mxCell>
        <mxCell id="O1W7RyEscfZ62sLBNmEL-14" value="T_Commentaires" style="swimlane;fontStyle=1;childLayout=stackLayout;horizontal=1;startSize=26;horizontalStack=0;resizeParent=1;resizeLast=0;collapsible=1;marginBottom=0;rounded=0;shadow=0;strokeWidth=1;" parent="WIyWlLk6GJQsqaUBKTNV-1" vertex="1">
          <mxGeometry x="13" y="460" width="160" height="110" as="geometry">
            <mxRectangle x="20" y="80" width="160" height="26" as="alternateBounds"/>
          </mxGeometry>
        </mxCell>
        <mxCell id="O1W7RyEscfZ62sLBNmEL-15" value="id_commentaire" style="shape=partialRectangle;top=0;left=0;right=0;bottom=1;align=left;verticalAlign=top;fillColor=none;spacingLeft=40;spacingRight=4;overflow=hidden;rotatable=0;points=[[0,0.5],[1,0.5]];portConstraint=eastwest;dropTarget=0;rounded=0;shadow=0;strokeWidth=1;fontStyle=4" parent="O1W7RyEscfZ62sLBNmEL-14" vertex="1">
          <mxGeometry y="26" width="160" height="26" as="geometry"/>
        </mxCell>
        <mxCell id="O1W7RyEscfZ62sLBNmEL-16" value="PK" style="shape=partialRectangle;top=0;left=0;bottom=0;fillColor=none;align=left;verticalAlign=top;spacingLeft=4;spacingRight=4;overflow=hidden;rotatable=0;points=[];portConstraint=eastwest;part=1;" parent="O1W7RyEscfZ62sLBNmEL-15" vertex="1" connectable="0">
          <mxGeometry width="36" height="26" as="geometry"/>
        </mxCell>
        <mxCell id="O1W7RyEscfZ62sLBNmEL-17" value="fk_id_ticket&#xa;fk_id_utilisateur&#xa;Commentaire" style="shape=partialRectangle;top=0;left=0;right=0;bottom=0;align=left;verticalAlign=top;fillColor=none;spacingLeft=40;spacingRight=4;overflow=hidden;rotatable=0;points=[[0,0.5],[1,0.5]];portConstraint=eastwest;dropTarget=0;rounded=0;shadow=0;strokeWidth=1;" parent="O1W7RyEscfZ62sLBNmEL-14" vertex="1">
          <mxGeometry y="52" width="160" height="58" as="geometry"/>
        </mxCell>
        <mxCell id="O1W7RyEscfZ62sLBNmEL-18" value="FK" style="shape=partialRectangle;top=0;left=0;bottom=0;fillColor=none;align=left;verticalAlign=top;spacingLeft=4;spacingRight=4;overflow=hidden;rotatable=0;points=[];portConstraint=eastwest;part=1;" parent="O1W7RyEscfZ62sLBNmEL-17" vertex="1" connectable="0">
          <mxGeometry width="36" height="58" as="geometry"/>
        </mxCell>
        <mxCell id="O1W7RyEscfZ62sLBNmEL-19" value="T_Impacts" style="swimlane;fontStyle=1;childLayout=stackLayout;horizontal=1;startSize=26;horizontalStack=0;resizeParent=1;resizeLast=0;collapsible=1;marginBottom=0;rounded=0;shadow=0;strokeWidth=1;" parent="WIyWlLk6GJQsqaUBKTNV-1" vertex="1">
          <mxGeometry x="433" y="760" width="160" height="90" as="geometry">
            <mxRectangle x="20" y="80" width="160" height="26" as="alternateBounds"/>
          </mxGeometry>
        </mxCell>
        <mxCell id="O1W7RyEscfZ62sLBNmEL-20" value="id_impact" style="shape=partialRectangle;top=0;left=0;right=0;bottom=1;align=left;verticalAlign=top;fillColor=none;spacingLeft=40;spacingRight=4;overflow=hidden;rotatable=0;points=[[0,0.5],[1,0.5]];portConstraint=eastwest;dropTarget=0;rounded=0;shadow=0;strokeWidth=1;fontStyle=4" parent="O1W7RyEscfZ62sLBNmEL-19" vertex="1">
          <mxGeometry y="26" width="160" height="26" as="geometry"/>
        </mxCell>
        <mxCell id="O1W7RyEscfZ62sLBNmEL-21" value="PK" style="shape=partialRectangle;top=0;left=0;bottom=0;fillColor=none;align=left;verticalAlign=top;spacingLeft=4;spacingRight=4;overflow=hidden;rotatable=0;points=[];portConstraint=eastwest;part=1;" parent="O1W7RyEscfZ62sLBNmEL-20" vertex="1" connectable="0">
          <mxGeometry width="36" height="26" as="geometry"/>
        </mxCell>
        <mxCell id="O1W7RyEscfZ62sLBNmEL-22" value="Impact&#xa;Description_impact" style="shape=partialRectangle;top=0;left=0;right=0;bottom=0;align=left;verticalAlign=top;fillColor=none;spacingLeft=40;spacingRight=4;overflow=hidden;rotatable=0;points=[[0,0.5],[1,0.5]];portConstraint=eastwest;dropTarget=0;rounded=0;shadow=0;strokeWidth=1;" parent="O1W7RyEscfZ62sLBNmEL-19" vertex="1">
          <mxGeometry y="52" width="160" height="38" as="geometry"/>
        </mxCell>
        <mxCell id="O1W7RyEscfZ62sLBNmEL-23" value="" style="shape=partialRectangle;top=0;left=0;bottom=0;fillColor=none;align=left;verticalAlign=top;spacingLeft=4;spacingRight=4;overflow=hidden;rotatable=0;points=[];portConstraint=eastwest;part=1;" parent="O1W7RyEscfZ62sLBNmEL-22" vertex="1" connectable="0">
          <mxGeometry width="36" height="38" as="geometry"/>
        </mxCell>
        <mxCell id="O1W7RyEscfZ62sLBNmEL-24" value="T_Priorites" style="swimlane;fontStyle=1;childLayout=stackLayout;horizontal=1;startSize=26;horizontalStack=0;resizeParent=1;resizeLast=0;collapsible=1;marginBottom=0;rounded=0;shadow=0;strokeWidth=1;" parent="WIyWlLk6GJQsqaUBKTNV-1" vertex="1">
          <mxGeometry x="653" y="760" width="160" height="90" as="geometry">
            <mxRectangle x="20" y="80" width="160" height="26" as="alternateBounds"/>
          </mxGeometry>
        </mxCell>
        <mxCell id="O1W7RyEscfZ62sLBNmEL-25" value="id_priorite" style="shape=partialRectangle;top=0;left=0;right=0;bottom=1;align=left;verticalAlign=top;fillColor=none;spacingLeft=40;spacingRight=4;overflow=hidden;rotatable=0;points=[[0,0.5],[1,0.5]];portConstraint=eastwest;dropTarget=0;rounded=0;shadow=0;strokeWidth=1;fontStyle=4" parent="O1W7RyEscfZ62sLBNmEL-24" vertex="1">
          <mxGeometry y="26" width="160" height="26" as="geometry"/>
        </mxCell>
        <mxCell id="O1W7RyEscfZ62sLBNmEL-26" value="PK" style="shape=partialRectangle;top=0;left=0;bottom=0;fillColor=none;align=left;verticalAlign=top;spacingLeft=4;spacingRight=4;overflow=hidden;rotatable=0;points=[];portConstraint=eastwest;part=1;" parent="O1W7RyEscfZ62sLBNmEL-25" vertex="1" connectable="0">
          <mxGeometry width="36" height="26" as="geometry"/>
        </mxCell>
        <mxCell id="O1W7RyEscfZ62sLBNmEL-27" value="Priorite&#xa;Description_priorite" style="shape=partialRectangle;top=0;left=0;right=0;bottom=0;align=left;verticalAlign=top;fillColor=none;spacingLeft=40;spacingRight=4;overflow=hidden;rotatable=0;points=[[0,0.5],[1,0.5]];portConstraint=eastwest;dropTarget=0;rounded=0;shadow=0;strokeWidth=1;" parent="O1W7RyEscfZ62sLBNmEL-24" vertex="1">
          <mxGeometry y="52" width="160" height="38" as="geometry"/>
        </mxCell>
        <mxCell id="O1W7RyEscfZ62sLBNmEL-28" value="" style="shape=partialRectangle;top=0;left=0;bottom=0;fillColor=none;align=left;verticalAlign=top;spacingLeft=4;spacingRight=4;overflow=hidden;rotatable=0;points=[];portConstraint=eastwest;part=1;" parent="O1W7RyEscfZ62sLBNmEL-27" vertex="1" connectable="0">
          <mxGeometry width="36" height="38" as="geometry"/>
        </mxCell>
        <mxCell id="O1W7RyEscfZ62sLBNmEL-29" value="" style="edgeStyle=orthogonalEdgeStyle;endArrow=ERzeroToMany;startArrow=ERmandOne;shadow=0;strokeWidth=1;endSize=8;startSize=8;entryX=0.5;entryY=0;entryDx=0;entryDy=0;exitX=0;exitY=0.5;exitDx=0;exitDy=0;" parent="WIyWlLk6GJQsqaUBKTNV-1" source="zkfFHV4jXpPFQw0GAbJ--69" target="O1W7RyEscfZ62sLBNmEL-9" edge="1">
          <mxGeometry width="100" height="100" relative="1" as="geometry">
            <mxPoint x="233" y="610" as="sourcePoint"/>
            <mxPoint x="113" y="740" as="targetPoint"/>
            <Array as="points">
              <mxPoint x="93" y="606"/>
            </Array>
          </mxGeometry>
        </mxCell>
        <mxCell id="O1W7RyEscfZ62sLBNmEL-30" value="" style="edgeStyle=orthogonalEdgeStyle;endArrow=ERzeroToMany;startArrow=ERmandOne;shadow=0;strokeWidth=1;endSize=8;startSize=8;exitX=0;exitY=0.5;exitDx=0;exitDy=0;entryX=1;entryY=0.5;entryDx=0;entryDy=0;" parent="WIyWlLk6GJQsqaUBKTNV-1" source="zkfFHV4jXpPFQw0GAbJ--65" target="O1W7RyEscfZ62sLBNmEL-17" edge="1">
          <mxGeometry width="100" height="100" relative="1" as="geometry">
            <mxPoint x="293" y="630" as="sourcePoint"/>
            <mxPoint x="203" y="530" as="targetPoint"/>
            <Array as="points"/>
          </mxGeometry>
        </mxCell>
        <mxCell id="O1W7RyEscfZ62sLBNmEL-31" value="" style="edgeStyle=orthogonalEdgeStyle;endArrow=ERzeroToMany;startArrow=ERmandOne;shadow=0;strokeWidth=1;endSize=8;startSize=8;entryX=0.5;entryY=0;entryDx=0;entryDy=0;exitX=1;exitY=0.5;exitDx=0;exitDy=0;" parent="WIyWlLk6GJQsqaUBKTNV-1" source="zkfFHV4jXpPFQw0GAbJ--69" target="O1W7RyEscfZ62sLBNmEL-19" edge="1">
          <mxGeometry width="100" height="100" relative="1" as="geometry">
            <mxPoint x="346" y="576" as="sourcePoint"/>
            <mxPoint x="113" y="780" as="targetPoint"/>
            <Array as="points">
              <mxPoint x="603" y="606"/>
              <mxPoint x="603" y="720"/>
              <mxPoint x="513" y="720"/>
            </Array>
          </mxGeometry>
        </mxCell>
        <mxCell id="O1W7RyEscfZ62sLBNmEL-32" value="" style="edgeStyle=orthogonalEdgeStyle;endArrow=ERzeroToMany;startArrow=ERmandOne;shadow=0;strokeWidth=1;endSize=8;startSize=8;entryX=0.5;entryY=0;entryDx=0;entryDy=0;exitX=1;exitY=0.5;exitDx=0;exitDy=0;" parent="WIyWlLk6GJQsqaUBKTNV-1" source="zkfFHV4jXpPFQw0GAbJ--69" target="O1W7RyEscfZ62sLBNmEL-24" edge="1">
          <mxGeometry width="100" height="100" relative="1" as="geometry">
            <mxPoint x="356" y="586" as="sourcePoint"/>
            <mxPoint x="123" y="790" as="targetPoint"/>
            <Array as="points"/>
          </mxGeometry>
        </mxCell>
        <mxCell id="gd5H8BRTiU4TRQG8YiYF-6" value="1, 1" style="text;html=1;align=center;verticalAlign=middle;resizable=0;points=[];autosize=1;" parent="WIyWlLk6GJQsqaUBKTNV-1" vertex="1">
          <mxGeometry x="173" y="520" width="40" height="20" as="geometry"/>
        </mxCell>
        <mxCell id="gd5H8BRTiU4TRQG8YiYF-7" value="1, 1" style="text;html=1;align=center;verticalAlign=middle;resizable=0;points=[];autosize=1;" parent="WIyWlLk6GJQsqaUBKTNV-1" vertex="1">
          <mxGeometry x="523" y="580" width="40" height="20" as="geometry"/>
        </mxCell>
        <mxCell id="gd5H8BRTiU4TRQG8YiYF-8" value="1, 1" style="text;html=1;align=center;verticalAlign=middle;resizable=0;points=[];autosize=1;" parent="WIyWlLk6GJQsqaUBKTNV-1" vertex="1">
          <mxGeometry x="423" y="430" width="40" height="20" as="geometry"/>
        </mxCell>
        <mxCell id="gd5H8BRTiU4TRQG8YiYF-10" value="1, 1" style="text;html=1;align=center;verticalAlign=middle;resizable=0;points=[];autosize=1;" parent="WIyWlLk6GJQsqaUBKTNV-1" vertex="1">
          <mxGeometry x="286" y="170" width="40" height="20" as="geometry"/>
        </mxCell>
        <mxCell id="gd5H8BRTiU4TRQG8YiYF-11" value="1, 1" style="text;html=1;align=center;verticalAlign=middle;resizable=0;points=[];autosize=1;" parent="WIyWlLk6GJQsqaUBKTNV-1" vertex="1">
          <mxGeometry x="486" y="170" width="40" height="20" as="geometry"/>
        </mxCell>
        <mxCell id="gd5H8BRTiU4TRQG8YiYF-12" value="0, n" style="text;html=1;align=center;verticalAlign=middle;resizable=0;points=[];autosize=1;" parent="WIyWlLk6GJQsqaUBKTNV-1" vertex="1">
          <mxGeometry x="199.8" y="60" width="40" height="20" as="geometry"/>
        </mxCell>
        <mxCell id="gd5H8BRTiU4TRQG8YiYF-13" value="0, n" style="text;html=1;align=center;verticalAlign=middle;resizable=0;points=[];autosize=1;" parent="WIyWlLk6GJQsqaUBKTNV-1" vertex="1">
          <mxGeometry x="563" y="60" width="40" height="20" as="geometry"/>
        </mxCell>
        <mxCell id="gd5H8BRTiU4TRQG8YiYF-14" value="0, n" style="text;html=1;align=center;verticalAlign=middle;resizable=0;points=[];autosize=1;" parent="WIyWlLk6GJQsqaUBKTNV-1" vertex="1">
          <mxGeometry x="286" y="470" width="40" height="20" as="geometry"/>
        </mxCell>
        <mxCell id="gd5H8BRTiU4TRQG8YiYF-15" value="0, n" style="text;html=1;align=center;verticalAlign=middle;resizable=0;points=[];autosize=1;" parent="WIyWlLk6GJQsqaUBKTNV-1" vertex="1">
          <mxGeometry x="93" y="740" width="40" height="20" as="geometry"/>
        </mxCell>
        <mxCell id="gd5H8BRTiU4TRQG8YiYF-16" value="0, n" style="text;html=1;align=center;verticalAlign=middle;resizable=0;points=[];autosize=1;" parent="WIyWlLk6GJQsqaUBKTNV-1" vertex="1">
          <mxGeometry x="513" y="740" width="40" height="20" as="geometry"/>
        </mxCell>
        <mxCell id="gd5H8BRTiU4TRQG8YiYF-17" value="0, n" style="text;html=1;align=center;verticalAlign=middle;resizable=0;points=[];autosize=1;" parent="WIyWlLk6GJQsqaUBKTNV-1" vertex="1">
          <mxGeometry x="733" y="740" width="40" height="20" as="geometry"/>
        </mxCell>
        <mxCell id="tTGQOVnjQVMV4X9cB7OT-0" value="0, n" style="text;html=1;align=center;verticalAlign=middle;resizable=0;points=[];autosize=1;" parent="WIyWlLk6GJQsqaUBKTNV-1" vertex="1">
          <mxGeometry x="413" y="340" width="40" height="20" as="geometry"/>
        </mxCell>
        <mxCell id="SVWqZJ9bru4QcORBYJ26-0" value="1, 1" style="text;html=1;align=center;verticalAlign=middle;resizable=0;points=[];autosize=1;" parent="WIyWlLk6GJQsqaUBKTNV-1" vertex="1">
          <mxGeometry x="53" y="440" width="40" height="20" as="geometry"/>
        </mxCell>
        <mxCell id="SVWqZJ9bru4QcORBYJ26-1" value="" style="edgeStyle=orthogonalEdgeStyle;endArrow=ERzeroToMany;startArrow=ERmandOne;shadow=0;strokeWidth=1;endSize=8;startSize=8;fontStyle=1;exitX=0;exitY=0.5;exitDx=0;exitDy=0;entryX=0.5;entryY=0;entryDx=0;entryDy=0;" parent="WIyWlLk6GJQsqaUBKTNV-1" source="zkfFHV4jXpPFQw0GAbJ--61" target="O1W7RyEscfZ62sLBNmEL-14" edge="1">
          <mxGeometry width="100" height="100" relative="1" as="geometry">
            <mxPoint x="293" y="320" as="sourcePoint"/>
            <mxPoint x="263" y="380" as="targetPoint"/>
            <Array as="points">
              <mxPoint x="93" y="271"/>
            </Array>
          </mxGeometry>
        </mxCell>
        <mxCell id="SVWqZJ9bru4QcORBYJ26-2" value="0, n" style="text;html=1;align=center;verticalAlign=middle;resizable=0;points=[];autosize=1;" parent="WIyWlLk6GJQsqaUBKTNV-1" vertex="1">
          <mxGeometry x="286" y="250" width="40" height="20" as="geometry"/>
        </mxCell>
        <mxCell id="SVWqZJ9bru4QcORBYJ26-5" value="1, 1" style="text;html=1;align=center;verticalAlign=middle;resizable=0;points=[];autosize=1;" parent="WIyWlLk6GJQsqaUBKTNV-1" vertex="1">
          <mxGeometry x="286" y="580" width="40" height="20" as="geometry"/>
        </mxCell>
        <mxCell id="SVWqZJ9bru4QcORBYJ26-6" value="T_Status" style="swimlane;fontStyle=1;childLayout=stackLayout;horizontal=1;startSize=26;horizontalStack=0;resizeParent=1;resizeLast=0;collapsible=1;marginBottom=0;rounded=0;shadow=0;strokeWidth=1;" parent="WIyWlLk6GJQsqaUBKTNV-1" vertex="1">
          <mxGeometry x="223" y="760" width="160" height="90" as="geometry">
            <mxRectangle x="20" y="80" width="160" height="26" as="alternateBounds"/>
          </mxGeometry>
        </mxCell>
        <mxCell id="SVWqZJ9bru4QcORBYJ26-7" value="id_status" style="shape=partialRectangle;top=0;left=0;right=0;bottom=1;align=left;verticalAlign=top;fillColor=none;spacingLeft=40;spacingRight=4;overflow=hidden;rotatable=0;points=[[0,0.5],[1,0.5]];portConstraint=eastwest;dropTarget=0;rounded=0;shadow=0;strokeWidth=1;fontStyle=4" parent="SVWqZJ9bru4QcORBYJ26-6" vertex="1">
          <mxGeometry y="26" width="160" height="26" as="geometry"/>
        </mxCell>
        <mxCell id="SVWqZJ9bru4QcORBYJ26-8" value="PK" style="shape=partialRectangle;top=0;left=0;bottom=0;fillColor=none;align=left;verticalAlign=top;spacingLeft=4;spacingRight=4;overflow=hidden;rotatable=0;points=[];portConstraint=eastwest;part=1;" parent="SVWqZJ9bru4QcORBYJ26-7" vertex="1" connectable="0">
          <mxGeometry width="36" height="26" as="geometry"/>
        </mxCell>
        <mxCell id="SVWqZJ9bru4QcORBYJ26-9" value="Status&#xa;Description_status" style="shape=partialRectangle;top=0;left=0;right=0;bottom=0;align=left;verticalAlign=top;fillColor=none;spacingLeft=40;spacingRight=4;overflow=hidden;rotatable=0;points=[[0,0.5],[1,0.5]];portConstraint=eastwest;dropTarget=0;rounded=0;shadow=0;strokeWidth=1;" parent="SVWqZJ9bru4QcORBYJ26-6" vertex="1">
          <mxGeometry y="52" width="160" height="38" as="geometry"/>
        </mxCell>
        <mxCell id="SVWqZJ9bru4QcORBYJ26-10" value="" style="shape=partialRectangle;top=0;left=0;bottom=0;fillColor=none;align=left;verticalAlign=top;spacingLeft=4;spacingRight=4;overflow=hidden;rotatable=0;points=[];portConstraint=eastwest;part=1;" parent="SVWqZJ9bru4QcORBYJ26-9" vertex="1" connectable="0">
          <mxGeometry width="36" height="38" as="geometry"/>
        </mxCell>
        <mxCell id="SVWqZJ9bru4QcORBYJ26-11" value="" style="edgeStyle=orthogonalEdgeStyle;endArrow=ERzeroToMany;startArrow=ERmandOne;shadow=0;strokeWidth=1;endSize=8;startSize=8;entryX=0.5;entryY=0;entryDx=0;entryDy=0;exitX=0;exitY=0.5;exitDx=0;exitDy=0;" parent="WIyWlLk6GJQsqaUBKTNV-1" source="zkfFHV4jXpPFQw0GAbJ--69" target="SVWqZJ9bru4QcORBYJ26-6" edge="1">
          <mxGeometry width="100" height="100" relative="1" as="geometry">
            <mxPoint x="293" y="630" as="sourcePoint"/>
            <mxPoint x="103" y="780" as="targetPoint"/>
            <Array as="points">
              <mxPoint x="243" y="606"/>
              <mxPoint x="243" y="720"/>
              <mxPoint x="303" y="720"/>
            </Array>
          </mxGeometry>
        </mxCell>
        <mxCell id="SVWqZJ9bru4QcORBYJ26-12" value="0, n" style="text;html=1;align=center;verticalAlign=middle;resizable=0;points=[];autosize=1;" parent="WIyWlLk6GJQsqaUBKTNV-1" vertex="1">
          <mxGeometry x="303" y="740" width="40" height="20" as="geometry"/>
        </mxCell>
        <mxCell id="09mdxs2kGaxenlkjQEx4-0" value="T_Documents" style="swimlane;fontStyle=1;childLayout=stackLayout;horizontal=1;startSize=26;horizontalStack=0;resizeParent=1;resizeLast=0;collapsible=1;marginBottom=0;rounded=0;shadow=0;strokeWidth=1;" vertex="1" parent="WIyWlLk6GJQsqaUBKTNV-1">
          <mxGeometry x="653" y="460" width="160" height="110" as="geometry">
            <mxRectangle x="20" y="80" width="160" height="26" as="alternateBounds"/>
          </mxGeometry>
        </mxCell>
        <mxCell id="09mdxs2kGaxenlkjQEx4-1" value="id_document " style="shape=partialRectangle;top=0;left=0;right=0;bottom=1;align=left;verticalAlign=top;fillColor=none;spacingLeft=40;spacingRight=4;overflow=hidden;rotatable=0;points=[[0,0.5],[1,0.5]];portConstraint=eastwest;dropTarget=0;rounded=0;shadow=0;strokeWidth=1;fontStyle=4" vertex="1" parent="09mdxs2kGaxenlkjQEx4-0">
          <mxGeometry y="26" width="160" height="26" as="geometry"/>
        </mxCell>
        <mxCell id="09mdxs2kGaxenlkjQEx4-2" value="PK" style="shape=partialRectangle;top=0;left=0;bottom=0;fillColor=none;align=left;verticalAlign=top;spacingLeft=4;spacingRight=4;overflow=hidden;rotatable=0;points=[];portConstraint=eastwest;part=1;" vertex="1" connectable="0" parent="09mdxs2kGaxenlkjQEx4-1">
          <mxGeometry width="36" height="26" as="geometry"/>
        </mxCell>
        <mxCell id="09mdxs2kGaxenlkjQEx4-3" value="fk_id_ticket&#xa;fk_id_utilisateur&#xa;Lien_document" style="shape=partialRectangle;top=0;left=0;right=0;bottom=0;align=left;verticalAlign=top;fillColor=none;spacingLeft=40;spacingRight=4;overflow=hidden;rotatable=0;points=[[0,0.5],[1,0.5]];portConstraint=eastwest;dropTarget=0;rounded=0;shadow=0;strokeWidth=1;" vertex="1" parent="09mdxs2kGaxenlkjQEx4-0">
          <mxGeometry y="52" width="160" height="58" as="geometry"/>
        </mxCell>
        <mxCell id="09mdxs2kGaxenlkjQEx4-4" value="FK" style="shape=partialRectangle;top=0;left=0;bottom=0;fillColor=none;align=left;verticalAlign=top;spacingLeft=4;spacingRight=4;overflow=hidden;rotatable=0;points=[];portConstraint=eastwest;part=1;" vertex="1" connectable="0" parent="09mdxs2kGaxenlkjQEx4-3">
          <mxGeometry width="36" height="58" as="geometry"/>
        </mxCell>
        <mxCell id="09mdxs2kGaxenlkjQEx4-5" value="1, 1" style="text;html=1;align=center;verticalAlign=middle;resizable=0;points=[];autosize=1;" vertex="1" parent="WIyWlLk6GJQsqaUBKTNV-1">
          <mxGeometry x="603" y="520" width="40" height="20" as="geometry"/>
        </mxCell>
        <mxCell id="09mdxs2kGaxenlkjQEx4-6" value="1, 1" style="text;html=1;align=center;verticalAlign=middle;resizable=0;points=[];autosize=1;" vertex="1" parent="WIyWlLk6GJQsqaUBKTNV-1">
          <mxGeometry x="693" y="440" width="40" height="20" as="geometry"/>
        </mxCell>
        <mxCell id="09mdxs2kGaxenlkjQEx4-8" value="" style="edgeStyle=orthogonalEdgeStyle;endArrow=ERzeroToMany;startArrow=ERmandOne;shadow=0;strokeWidth=1;endSize=8;startSize=8;fontStyle=1;exitX=1;exitY=0.5;exitDx=0;exitDy=0;entryX=0.5;entryY=0;entryDx=0;entryDy=0;" edge="1" parent="WIyWlLk6GJQsqaUBKTNV-1" source="zkfFHV4jXpPFQw0GAbJ--61" target="09mdxs2kGaxenlkjQEx4-0">
          <mxGeometry width="100" height="100" relative="1" as="geometry">
            <mxPoint x="336" y="281" as="sourcePoint"/>
            <mxPoint x="103" y="470" as="targetPoint"/>
            <Array as="points">
              <mxPoint x="733" y="271"/>
            </Array>
          </mxGeometry>
        </mxCell>
        <mxCell id="09mdxs2kGaxenlkjQEx4-9" value="" style="edgeStyle=orthogonalEdgeStyle;endArrow=ERzeroToMany;startArrow=ERmandOne;shadow=0;strokeWidth=1;endSize=8;startSize=8;exitX=1;exitY=0.5;exitDx=0;exitDy=0;entryX=0;entryY=0.5;entryDx=0;entryDy=0;" edge="1" parent="WIyWlLk6GJQsqaUBKTNV-1" source="zkfFHV4jXpPFQw0GAbJ--65" target="09mdxs2kGaxenlkjQEx4-3">
          <mxGeometry width="100" height="100" relative="1" as="geometry">
            <mxPoint x="336" y="499" as="sourcePoint"/>
            <mxPoint x="183" y="509" as="targetPoint"/>
            <Array as="points"/>
          </mxGeometry>
        </mxCell>
        <mxCell id="09mdxs2kGaxenlkjQEx4-12" value="0, n" style="text;html=1;align=center;verticalAlign=middle;resizable=0;points=[];autosize=1;" vertex="1" parent="WIyWlLk6GJQsqaUBKTNV-1">
          <mxGeometry x="523" y="470" width="40" height="20" as="geometry"/>
        </mxCell>
        <mxCell id="09mdxs2kGaxenlkjQEx4-15" value="0, n" style="text;html=1;align=center;verticalAlign=middle;resizable=0;points=[];autosize=1;" vertex="1" parent="WIyWlLk6GJQsqaUBKTNV-1">
          <mxGeometry x="486" y="250" width="40" height="20" as="geometry"/>
        </mxCell>
      </root>
    </mxGraphModel>
  </diagram>
</mxfile>
